<svg xmlns="http://www.w3.org/2000/svg" xmlns:xlink="http://www.w3.org/1999/xlink" width="500" zoomAndPan="magnify" viewBox="0 0 375 374.999991" height="500" preserveAspectRatio="xMidYMid meet" version="1.2"><defs/><g id="72bd471833"><g style="fill:#2d3318;fill-opacity:1;"><g transform="translate(39.364627, 192.146728)"><path style="stroke:none" d="M 42.625 1.890625 C 34.976562 1.890625 27.554688 0.945312 20.359375 -0.9375 C 13.171875 -2.832031 7.328125 -5.351562 2.828125 -8.5 L 11.609375 -28.203125 C 15.828125 -25.410156 20.722656 -23.160156 26.296875 -21.453125 C 31.878906 -19.742188 37.367188 -18.890625 42.765625 -18.890625 C 53.015625 -18.890625 58.140625 -21.453125 58.140625 -26.578125 C 58.140625 -29.273438 56.675781 -31.273438 53.75 -32.578125 C 50.832031 -33.878906 46.132812 -35.25 39.65625 -36.6875 C 32.550781 -38.21875 26.613281 -39.859375 21.84375 -41.609375 C 17.082031 -43.367188 12.992188 -46.179688 9.578125 -50.046875 C 6.160156 -53.910156 4.453125 -59.128906 4.453125 -65.703125 C 4.453125 -71.453125 6.023438 -76.644531 9.171875 -81.28125 C 12.316406 -85.914062 17.015625 -89.582031 23.265625 -92.28125 C 29.515625 -94.976562 37.179688 -96.328125 46.265625 -96.328125 C 52.472656 -96.328125 58.585938 -95.628906 64.609375 -94.234375 C 70.640625 -92.835938 75.945312 -90.789062 80.53125 -88.09375 L 72.3125 -68.265625 C 63.3125 -73.117188 54.585938 -75.546875 46.140625 -75.546875 C 40.828125 -75.546875 36.957031 -74.757812 34.53125 -73.1875 C 32.101562 -71.613281 30.890625 -69.566406 30.890625 -67.046875 C 30.890625 -64.523438 32.328125 -62.632812 35.203125 -61.375 C 38.085938 -60.125 42.722656 -58.820312 49.109375 -57.46875 C 56.296875 -55.9375 62.25 -54.296875 66.96875 -52.546875 C 71.695312 -50.796875 75.789062 -48.007812 79.25 -44.1875 C 82.71875 -40.363281 84.453125 -35.164062 84.453125 -28.59375 C 84.453125 -22.925781 82.878906 -17.800781 79.734375 -13.21875 C 76.585938 -8.632812 71.863281 -4.96875 65.5625 -2.21875 C 59.269531 0.519531 51.625 1.890625 42.625 1.890625 Z M 42.625 1.890625 "/></g></g><g style="fill:#2d3318;fill-opacity:1;"><g transform="translate(138.386605, 192.146728)"><path style="stroke:none" d="M 29.546875 -73.25 L 0.546875 -73.25 L 0.546875 -94.4375 L 85.125 -94.4375 L 85.125 -73.25 L 56.25 -73.25 L 56.25 0 L 29.546875 0 Z M 29.546875 -73.25 "/></g></g><g style="fill:#2d3318;fill-opacity:1;"><g transform="translate(235.789724, 192.146728)"><path style="stroke:none" d="M 50.71875 -25.09375 L 36.15625 -25.09375 L 36.15625 0 L 9.4375 0 L 9.4375 -94.4375 L 52.609375 -94.4375 C 61.148438 -94.4375 68.566406 -93.019531 74.859375 -90.1875 C 81.160156 -87.351562 86.019531 -83.304688 89.4375 -78.046875 C 92.851562 -72.785156 94.5625 -66.601562 94.5625 -59.5 C 94.5625 -52.65625 92.960938 -46.691406 89.765625 -41.609375 C 86.578125 -36.535156 82.019531 -32.554688 76.09375 -29.671875 L 96.453125 0 L 67.859375 0 Z M 67.59375 -59.5 C 67.59375 -63.90625 66.195312 -67.320312 63.40625 -69.75 C 60.613281 -72.175781 56.476562 -73.390625 51 -73.390625 L 36.15625 -73.390625 L 36.15625 -45.734375 L 51 -45.734375 C 56.476562 -45.734375 60.613281 -46.925781 63.40625 -49.3125 C 66.195312 -51.695312 67.59375 -55.09375 67.59375 -59.5 Z M 67.59375 -59.5 "/></g></g><g style="fill:#2d3318;fill-opacity:1;"><g transform="translate(41.860061, 271.065861)"><path style="stroke:none" d="M 11.078125 0.28125 C 9.191406 0.28125 7.367188 -0.0078125 5.609375 -0.59375 C 3.847656 -1.175781 2.46875 -1.9375 1.46875 -2.875 L 2.796875 -5.671875 C 3.753906 -4.804688 4.976562 -4.101562 6.46875 -3.5625 C 7.96875 -3.03125 9.503906 -2.765625 11.078125 -2.765625 C 13.160156 -2.765625 14.710938 -3.113281 15.734375 -3.8125 C 16.765625 -4.519531 17.28125 -5.460938 17.28125 -6.640625 C 17.28125 -7.492188 17 -8.1875 16.4375 -8.71875 C 15.875 -9.257812 15.179688 -9.675781 14.359375 -9.96875 C 13.535156 -10.257812 12.367188 -10.582031 10.859375 -10.9375 C 8.972656 -11.394531 7.445312 -11.847656 6.28125 -12.296875 C 5.125 -12.753906 4.132812 -13.453125 3.3125 -14.390625 C 2.488281 -15.335938 2.078125 -16.613281 2.078125 -18.21875 C 2.078125 -19.550781 2.429688 -20.753906 3.140625 -21.828125 C 3.847656 -22.910156 4.914062 -23.773438 6.34375 -24.421875 C 7.78125 -25.066406 9.5625 -25.390625 11.6875 -25.390625 C 13.164062 -25.390625 14.625 -25.195312 16.0625 -24.8125 C 17.5 -24.425781 18.734375 -23.878906 19.765625 -23.171875 L 18.578125 -20.296875 C 17.523438 -20.960938 16.398438 -21.46875 15.203125 -21.8125 C 14.003906 -22.164062 12.832031 -22.34375 11.6875 -22.34375 C 9.65625 -22.34375 8.128906 -21.96875 7.109375 -21.21875 C 6.097656 -20.476562 5.59375 -19.523438 5.59375 -18.359375 C 5.59375 -17.492188 5.878906 -16.789062 6.453125 -16.25 C 7.023438 -15.71875 7.734375 -15.300781 8.578125 -15 C 9.429688 -14.707031 10.585938 -14.394531 12.046875 -14.0625 C 13.929688 -13.601562 15.445312 -13.144531 16.59375 -12.6875 C 17.75 -12.238281 18.738281 -11.546875 19.5625 -10.609375 C 20.382812 -9.679688 20.796875 -8.425781 20.796875 -6.84375 C 20.796875 -5.53125 20.4375 -4.328125 19.71875 -3.234375 C 19 -2.148438 17.910156 -1.289062 16.453125 -0.65625 C 14.992188 -0.03125 13.203125 0.28125 11.078125 0.28125 Z M 11.078125 0.28125 "/></g></g><g style="fill:#2d3318;fill-opacity:1;"><g transform="translate(73.023454, 271.065861)"><path style="stroke:none" d="M 13.5625 -25.09375 C 16.8125 -25.09375 19.367188 -24.316406 21.234375 -22.765625 C 23.097656 -21.210938 24.03125 -19.078125 24.03125 -16.359375 C 24.03125 -13.628906 23.097656 -11.488281 21.234375 -9.9375 C 19.367188 -8.382812 16.8125 -7.609375 13.5625 -7.609375 L 7.34375 -7.609375 L 7.34375 0 L 3.765625 0 L 3.765625 -25.09375 Z M 13.453125 -10.71875 C 15.722656 -10.71875 17.453125 -11.203125 18.640625 -12.171875 C 19.835938 -13.140625 20.4375 -14.535156 20.4375 -16.359375 C 20.4375 -18.171875 19.835938 -19.5625 18.640625 -20.53125 C 17.453125 -21.5 15.722656 -21.984375 13.453125 -21.984375 L 7.34375 -21.984375 L 7.34375 -10.71875 Z M 13.453125 -10.71875 "/></g></g><g style="fill:#2d3318;fill-opacity:1;"><g transform="translate(107.808639, 271.065861)"><path style="stroke:none" d="M 21.984375 -3.125 L 21.984375 0 L 3.765625 0 L 3.765625 -25.09375 L 21.484375 -25.09375 L 21.484375 -21.984375 L 7.34375 -21.984375 L 7.34375 -14.265625 L 19.9375 -14.265625 L 19.9375 -11.21875 L 7.34375 -11.21875 L 7.34375 -3.125 Z M 21.984375 -3.125 "/></g></g><g style="fill:#2d3318;fill-opacity:1;"><g transform="translate(140.729134, 271.065861)"><path style="stroke:none" d="M 14.984375 0.28125 C 12.472656 0.28125 10.207031 -0.269531 8.1875 -1.375 C 6.164062 -2.488281 4.582031 -4.019531 3.4375 -5.96875 C 2.289062 -7.914062 1.71875 -10.109375 1.71875 -12.546875 C 1.71875 -14.984375 2.289062 -17.175781 3.4375 -19.125 C 4.582031 -21.070312 6.171875 -22.601562 8.203125 -23.71875 C 10.242188 -24.832031 12.519531 -25.390625 15.03125 -25.390625 C 16.988281 -25.390625 18.78125 -25.0625 20.40625 -24.40625 C 22.03125 -23.75 23.414062 -22.773438 24.5625 -21.484375 L 22.234375 -19.21875 C 20.347656 -21.207031 17.992188 -22.203125 15.171875 -22.203125 C 13.304688 -22.203125 11.617188 -21.78125 10.109375 -20.9375 C 8.609375 -20.101562 7.429688 -18.953125 6.578125 -17.484375 C 5.734375 -16.015625 5.3125 -14.367188 5.3125 -12.546875 C 5.3125 -10.734375 5.734375 -9.09375 6.578125 -7.625 C 7.429688 -6.15625 8.609375 -5 10.109375 -4.15625 C 11.617188 -3.320312 13.304688 -2.90625 15.171875 -2.90625 C 17.960938 -2.90625 20.316406 -3.910156 22.234375 -5.921875 L 24.5625 -3.65625 C 23.414062 -2.363281 22.019531 -1.382812 20.375 -0.71875 C 18.738281 -0.0507812 16.941406 0.28125 14.984375 0.28125 Z M 14.984375 0.28125 "/></g></g><g style="fill:#2d3318;fill-opacity:1;"><g transform="translate(175.550173, 271.065861)"><path style="stroke:none" d="M 3.765625 -25.09375 L 7.34375 -25.09375 L 7.34375 0 L 3.765625 0 Z M 3.765625 -25.09375 "/></g></g><g style="fill:#2d3318;fill-opacity:1;"><g transform="translate(195.561311, 271.065861)"><path style="stroke:none" d="M 19.765625 -6.28125 L 6.421875 -6.28125 L 3.65625 0 L -0.03125 0 L 11.328125 -25.09375 L 14.875 -25.09375 L 26.28125 0 L 22.515625 0 Z M 18.5 -9.140625 L 13.09375 -21.4375 L 7.671875 -9.140625 Z M 18.5 -9.140625 "/></g></g><g style="fill:#2d3318;fill-opacity:1;"><g transform="translate(230.705085, 271.065861)"><path style="stroke:none" d="M 3.765625 -25.09375 L 7.34375 -25.09375 L 7.34375 -3.125 L 20.9375 -3.125 L 20.9375 0 L 3.765625 0 Z M 3.765625 -25.09375 "/></g></g><g style="fill:#2d3318;fill-opacity:1;"><g transform="translate(260.900284, 271.065861)"><path style="stroke:none" d="M 3.765625 -25.09375 L 7.34375 -25.09375 L 7.34375 0 L 3.765625 0 Z M 3.765625 -25.09375 "/></g></g><g style="fill:#2d3318;fill-opacity:1;"><g transform="translate(280.911422, 271.065861)"><path style="stroke:none" d="M 11.078125 0.28125 C 9.191406 0.28125 7.367188 -0.0078125 5.609375 -0.59375 C 3.847656 -1.175781 2.46875 -1.9375 1.46875 -2.875 L 2.796875 -5.671875 C 3.753906 -4.804688 4.976562 -4.101562 6.46875 -3.5625 C 7.96875 -3.03125 9.503906 -2.765625 11.078125 -2.765625 C 13.160156 -2.765625 14.710938 -3.113281 15.734375 -3.8125 C 16.765625 -4.519531 17.28125 -5.460938 17.28125 -6.640625 C 17.28125 -7.492188 17 -8.1875 16.4375 -8.71875 C 15.875 -9.257812 15.179688 -9.675781 14.359375 -9.96875 C 13.535156 -10.257812 12.367188 -10.582031 10.859375 -10.9375 C 8.972656 -11.394531 7.445312 -11.847656 6.28125 -12.296875 C 5.125 -12.753906 4.132812 -13.453125 3.3125 -14.390625 C 2.488281 -15.335938 2.078125 -16.613281 2.078125 -18.21875 C 2.078125 -19.550781 2.429688 -20.753906 3.140625 -21.828125 C 3.847656 -22.910156 4.914062 -23.773438 6.34375 -24.421875 C 7.78125 -25.066406 9.5625 -25.390625 11.6875 -25.390625 C 13.164062 -25.390625 14.625 -25.195312 16.0625 -24.8125 C 17.5 -24.425781 18.734375 -23.878906 19.765625 -23.171875 L 18.578125 -20.296875 C 17.523438 -20.960938 16.398438 -21.46875 15.203125 -21.8125 C 14.003906 -22.164062 12.832031 -22.34375 11.6875 -22.34375 C 9.65625 -22.34375 8.128906 -21.96875 7.109375 -21.21875 C 6.097656 -20.476562 5.59375 -19.523438 5.59375 -18.359375 C 5.59375 -17.492188 5.878906 -16.789062 6.453125 -16.25 C 7.023438 -15.71875 7.734375 -15.300781 8.578125 -15 C 9.429688 -14.707031 10.585938 -14.394531 12.046875 -14.0625 C 13.929688 -13.601562 15.445312 -13.144531 16.59375 -12.6875 C 17.75 -12.238281 18.738281 -11.546875 19.5625 -10.609375 C 20.382812 -9.679688 20.796875 -8.425781 20.796875 -6.84375 C 20.796875 -5.53125 20.4375 -4.328125 19.71875 -3.234375 C 19 -2.148438 17.910156 -1.289062 16.453125 -0.65625 C 14.992188 -0.03125 13.203125 0.28125 11.078125 0.28125 Z M 11.078125 0.28125 "/></g></g><g style="fill:#2d3318;fill-opacity:1;"><g transform="translate(312.074804, 271.065861)"><path style="stroke:none" d="M 8.75 -21.984375 L 0.140625 -21.984375 L 0.140625 -25.09375 L 20.90625 -25.09375 L 20.90625 -21.984375 L 12.296875 -21.984375 L 12.296875 0 L 8.75 0 Z M 8.75 -21.984375 "/></g></g><path style="fill:none;stroke-width:39;stroke-linecap:butt;stroke-linejoin:miter;stroke:#4f46e5;stroke-opacity:1;stroke-miterlimit:4;" d="M 0.00141225 19.50113 L 406.01257 19.501057 " transform="matrix(0.749999,0.00139519,-0.00139519,0.749999,35.272242,202.565583)"/></g></svg>