<svg version="1.2" preserveAspectRatio="xMidYMid meet" viewBox="3 152.24999634600002 368.25 62.249998506000004" zoomAndPan="magnify" xmlns:xlink="http://www.w3.org/1999/xlink" xmlns="http://www.w3.org/2000/svg" style="max-height: 500px" width="368.25" height="62.249998506000004"><defs><clipPath id="643e9d8561"><path d="M 144.21875 200.222656 L 364.386719 200.222656 L 364.386719 205.546875 L 144.21875 205.546875 Z M 144.21875 200.222656"/></clipPath></defs><g id="e548bc64ac"><g clip-path="url(#643e9d8561)" clip-rule="nonzero"><path d="M 144.21875 200.222656 L 364.382812 200.222656 L 364.382812 205.546875 L 144.21875 205.546875 Z M 144.21875 200.222656" style="stroke:none;fill-rule:nonzero;fill:#4f46e5;fill-opacity:1;"/></g><g style="fill:#2d3318;fill-opacity:1;"><g transform="translate(7.414783, 204.282149)"><path d="M 19.71875 0.875 C 16.175781 0.875 12.742188 0.4375 9.421875 -0.4375 C 6.097656 -1.3125 3.394531 -2.476562 1.3125 -3.9375 L 5.359375 -13.046875 C 7.316406 -11.753906 9.582031 -10.710938 12.15625 -9.921875 C 14.738281 -9.128906 17.28125 -8.734375 19.78125 -8.734375 C 24.519531 -8.734375 26.890625 -9.921875 26.890625 -12.296875 C 26.890625 -13.535156 26.210938 -14.457031 24.859375 -15.0625 C 23.503906 -15.664062 21.332031 -16.300781 18.34375 -16.96875 C 15.050781 -17.675781 12.300781 -18.4375 10.09375 -19.25 C 7.894531 -20.0625 6.003906 -21.359375 4.421875 -23.140625 C 2.847656 -24.929688 2.0625 -27.347656 2.0625 -30.390625 C 2.0625 -33.046875 2.785156 -35.441406 4.234375 -37.578125 C 5.691406 -39.722656 7.863281 -41.421875 10.75 -42.671875 C 13.644531 -43.921875 17.195312 -44.546875 21.40625 -44.546875 C 24.269531 -44.546875 27.09375 -44.222656 29.875 -43.578125 C 32.664062 -42.929688 35.125 -41.984375 37.25 -40.734375 L 33.4375 -31.5625 C 29.28125 -33.8125 25.25 -34.9375 21.34375 -34.9375 C 18.882812 -34.9375 17.09375 -34.570312 15.96875 -33.84375 C 14.84375 -33.113281 14.28125 -32.171875 14.28125 -31.015625 C 14.28125 -29.847656 14.945312 -28.972656 16.28125 -28.390625 C 17.613281 -27.804688 19.753906 -27.203125 22.703125 -26.578125 C 26.035156 -25.867188 28.789062 -25.109375 30.96875 -24.296875 C 33.15625 -23.484375 35.050781 -22.191406 36.65625 -20.421875 C 38.257812 -18.660156 39.0625 -16.265625 39.0625 -13.234375 C 39.0625 -10.609375 38.332031 -8.234375 36.875 -6.109375 C 35.414062 -3.992188 33.226562 -2.300781 30.3125 -1.03125 C 27.40625 0.238281 23.875 0.875 19.71875 0.875 Z M 19.71875 0.875" style="stroke:none"/></g></g><g style="fill:#2d3318;fill-opacity:1;"><g transform="translate(49.396157, 204.282149)"><path d="M 13.65625 -33.875 L 0.25 -33.875 L 0.25 -43.671875 L 39.375 -43.671875 L 39.375 -33.875 L 26.015625 -33.875 L 26.015625 0 L 13.65625 0 Z M 13.65625 -33.875" style="stroke:none"/></g></g><g style="fill:#2d3318;fill-opacity:1;"><g transform="translate(90.628985, 204.282149)"><path d="M 23.453125 -11.609375 L 16.71875 -11.609375 L 16.71875 0 L 4.375 0 L 4.375 -43.671875 L 24.328125 -43.671875 C 28.285156 -43.671875 31.71875 -43.015625 34.625 -41.703125 C 37.539062 -40.398438 39.785156 -38.53125 41.359375 -36.09375 C 42.941406 -33.65625 43.734375 -30.796875 43.734375 -27.515625 C 43.734375 -24.347656 42.992188 -21.585938 41.515625 -19.234375 C 40.046875 -16.890625 37.9375 -15.050781 35.1875 -13.71875 L 44.609375 0 L 31.375 0 Z M 31.25 -27.515625 C 31.25 -29.554688 30.601562 -31.132812 29.3125 -32.25 C 28.03125 -33.375 26.117188 -33.9375 23.578125 -33.9375 L 16.71875 -33.9375 L 16.71875 -21.15625 L 23.578125 -21.15625 C 26.117188 -21.15625 28.03125 -21.703125 29.3125 -22.796875 C 30.601562 -23.898438 31.25 -25.472656 31.25 -27.515625 Z M 31.25 -27.515625" style="stroke:none"/></g></g><g style="fill:#2d3318;fill-opacity:1;"><g transform="translate(143.891118, 191.071285)"><path d="M 11.21875 0.296875 C 9.3125 0.296875 7.46875 0 5.6875 -0.59375 C 3.90625 -1.1875 2.503906 -1.957031 1.484375 -2.90625 L 2.828125 -5.734375 C 3.796875 -4.867188 5.035156 -4.160156 6.546875 -3.609375 C 8.066406 -3.066406 9.625 -2.796875 11.21875 -2.796875 C 13.320312 -2.796875 14.894531 -3.148438 15.9375 -3.859375 C 16.976562 -4.578125 17.5 -5.53125 17.5 -6.71875 C 17.5 -7.59375 17.210938 -8.300781 16.640625 -8.84375 C 16.078125 -9.382812 15.378906 -9.800781 14.546875 -10.09375 C 13.710938 -10.382812 12.53125 -10.710938 11 -11.078125 C 9.09375 -11.535156 7.550781 -11.992188 6.375 -12.453125 C 5.195312 -12.910156 4.191406 -13.617188 3.359375 -14.578125 C 2.523438 -15.535156 2.109375 -16.828125 2.109375 -18.453125 C 2.109375 -19.804688 2.460938 -21.023438 3.171875 -22.109375 C 3.890625 -23.203125 4.972656 -24.070312 6.421875 -24.71875 C 7.878906 -25.375 9.6875 -25.703125 11.84375 -25.703125 C 13.34375 -25.703125 14.816406 -25.507812 16.265625 -25.125 C 17.722656 -24.738281 18.972656 -24.179688 20.015625 -23.453125 L 18.8125 -20.546875 C 17.75 -21.222656 16.609375 -21.738281 15.390625 -22.09375 C 14.179688 -22.445312 13 -22.625 11.84375 -22.625 C 9.78125 -22.625 8.234375 -22.25 7.203125 -21.5 C 6.179688 -20.75 5.671875 -19.78125 5.671875 -18.59375 C 5.671875 -17.71875 5.957031 -17.007812 6.53125 -16.46875 C 7.113281 -15.925781 7.832031 -15.503906 8.6875 -15.203125 C 9.550781 -14.898438 10.722656 -14.578125 12.203125 -14.234375 C 14.109375 -13.773438 15.644531 -13.316406 16.8125 -12.859375 C 17.976562 -12.398438 18.976562 -11.695312 19.8125 -10.75 C 20.644531 -9.800781 21.0625 -8.53125 21.0625 -6.9375 C 21.0625 -5.601562 20.695312 -4.382812 19.96875 -3.28125 C 19.238281 -2.1875 18.132812 -1.316406 16.65625 -0.671875 C 15.1875 -0.0234375 13.375 0.296875 11.21875 0.296875 Z M 11.21875 0.296875" style="stroke:none"/></g></g><g style="fill:#2d3318;fill-opacity:1;"><g transform="translate(167.378517, 191.071285)"><path d="M 13.71875 -25.421875 C 17.019531 -25.421875 19.613281 -24.632812 21.5 -23.0625 C 23.382812 -21.488281 24.328125 -19.320312 24.328125 -16.5625 C 24.328125 -13.800781 23.382812 -11.632812 21.5 -10.0625 C 19.613281 -8.488281 17.019531 -7.703125 13.71875 -7.703125 L 7.4375 -7.703125 L 7.4375 0 L 3.8125 0 L 3.8125 -25.421875 Z M 13.625 -10.859375 C 15.914062 -10.859375 17.664062 -11.347656 18.875 -12.328125 C 20.09375 -13.304688 20.703125 -14.71875 20.703125 -16.5625 C 20.703125 -18.394531 20.09375 -19.800781 18.875 -20.78125 C 17.664062 -21.769531 15.914062 -22.265625 13.625 -22.265625 L 7.4375 -22.265625 L 7.4375 -10.859375 Z M 13.625 -10.859375" style="stroke:none"/></g></g><g style="fill:#2d3318;fill-opacity:1;"><g transform="translate(194.532357, 191.071285)"><path d="M 22.265625 -3.15625 L 22.265625 0 L 3.8125 0 L 3.8125 -25.421875 L 21.75 -25.421875 L 21.75 -22.265625 L 7.4375 -22.265625 L 7.4375 -14.453125 L 20.1875 -14.453125 L 20.1875 -11.359375 L 7.4375 -11.359375 L 7.4375 -3.15625 Z M 22.265625 -3.15625" style="stroke:none"/></g></g><g style="fill:#2d3318;fill-opacity:1;"><g transform="translate(219.798526, 191.071285)"><path d="M 15.171875 0.296875 C 12.628906 0.296875 10.335938 -0.265625 8.296875 -1.390625 C 6.253906 -2.523438 4.648438 -4.078125 3.484375 -6.046875 C 2.328125 -8.015625 1.75 -10.234375 1.75 -12.703125 C 1.75 -15.171875 2.328125 -17.390625 3.484375 -19.359375 C 4.648438 -21.335938 6.257812 -22.890625 8.3125 -24.015625 C 10.375 -25.140625 12.675781 -25.703125 15.21875 -25.703125 C 17.195312 -25.703125 19.007812 -25.367188 20.65625 -24.703125 C 22.300781 -24.046875 23.707031 -23.0625 24.875 -21.75 L 22.515625 -19.46875 C 20.597656 -21.476562 18.210938 -22.484375 15.359375 -22.484375 C 13.472656 -22.484375 11.765625 -22.054688 10.234375 -21.203125 C 8.710938 -20.359375 7.519531 -19.191406 6.65625 -17.703125 C 5.800781 -16.210938 5.375 -14.546875 5.375 -12.703125 C 5.375 -10.867188 5.800781 -9.207031 6.65625 -7.71875 C 7.519531 -6.226562 8.710938 -5.054688 10.234375 -4.203125 C 11.765625 -3.359375 13.472656 -2.9375 15.359375 -2.9375 C 18.191406 -2.9375 20.578125 -3.953125 22.515625 -5.984375 L 24.875 -3.703125 C 23.707031 -2.398438 22.296875 -1.40625 20.640625 -0.71875 C 18.984375 -0.0390625 17.160156 0.296875 15.171875 0.296875 Z M 15.171875 0.296875" style="stroke:none"/></g></g><g style="fill:#2d3318;fill-opacity:1;"><g transform="translate(246.98867, 191.071285)"><path d="M 3.8125 -25.421875 L 7.4375 -25.421875 L 7.4375 0 L 3.8125 0 Z M 3.8125 -25.421875" style="stroke:none"/></g></g><g style="fill:#2d3318;fill-opacity:1;"><g transform="translate(259.186315, 191.071285)"><path d="M 20.015625 -6.359375 L 6.5 -6.359375 L 3.703125 0 L -0.03125 0 L 11.46875 -25.421875 L 15.0625 -25.421875 L 26.609375 0 L 22.796875 0 Z M 18.734375 -9.265625 L 13.25 -21.71875 L 7.765625 -9.265625 Z M 18.734375 -9.265625" style="stroke:none"/></g></g><g style="fill:#2d3318;fill-opacity:1;"><g transform="translate(286.703169, 191.071285)"><path d="M 3.8125 -25.421875 L 7.4375 -25.421875 L 7.4375 -3.15625 L 21.203125 -3.15625 L 21.203125 0 L 3.8125 0 Z M 3.8125 -25.421875" style="stroke:none"/></g></g><g style="fill:#2d3318;fill-opacity:1;"><g transform="translate(309.210423, 191.071285)"><path d="M 3.8125 -25.421875 L 7.4375 -25.421875 L 7.4375 0 L 3.8125 0 Z M 3.8125 -25.421875" style="stroke:none"/></g></g><g style="fill:#2d3318;fill-opacity:1;"><g transform="translate(321.408068, 191.071285)"><path d="M 11.21875 0.296875 C 9.3125 0.296875 7.46875 0 5.6875 -0.59375 C 3.90625 -1.1875 2.503906 -1.957031 1.484375 -2.90625 L 2.828125 -5.734375 C 3.796875 -4.867188 5.035156 -4.160156 6.546875 -3.609375 C 8.066406 -3.066406 9.625 -2.796875 11.21875 -2.796875 C 13.320312 -2.796875 14.894531 -3.148438 15.9375 -3.859375 C 16.976562 -4.578125 17.5 -5.53125 17.5 -6.71875 C 17.5 -7.59375 17.210938 -8.300781 16.640625 -8.84375 C 16.078125 -9.382812 15.378906 -9.800781 14.546875 -10.09375 C 13.710938 -10.382812 12.53125 -10.710938 11 -11.078125 C 9.09375 -11.535156 7.550781 -11.992188 6.375 -12.453125 C 5.195312 -12.910156 4.191406 -13.617188 3.359375 -14.578125 C 2.523438 -15.535156 2.109375 -16.828125 2.109375 -18.453125 C 2.109375 -19.804688 2.460938 -21.023438 3.171875 -22.109375 C 3.890625 -23.203125 4.972656 -24.070312 6.421875 -24.71875 C 7.878906 -25.375 9.6875 -25.703125 11.84375 -25.703125 C 13.34375 -25.703125 14.816406 -25.507812 16.265625 -25.125 C 17.722656 -24.738281 18.972656 -24.179688 20.015625 -23.453125 L 18.8125 -20.546875 C 17.75 -21.222656 16.609375 -21.738281 15.390625 -22.09375 C 14.179688 -22.445312 13 -22.625 11.84375 -22.625 C 9.78125 -22.625 8.234375 -22.25 7.203125 -21.5 C 6.179688 -20.75 5.671875 -19.78125 5.671875 -18.59375 C 5.671875 -17.71875 5.957031 -17.007812 6.53125 -16.46875 C 7.113281 -15.925781 7.832031 -15.503906 8.6875 -15.203125 C 9.550781 -14.898438 10.722656 -14.578125 12.203125 -14.234375 C 14.109375 -13.773438 15.644531 -13.316406 16.8125 -12.859375 C 17.976562 -12.398438 18.976562 -11.695312 19.8125 -10.75 C 20.644531 -9.800781 21.0625 -8.53125 21.0625 -6.9375 C 21.0625 -5.601562 20.695312 -4.382812 19.96875 -3.28125 C 19.238281 -2.1875 18.132812 -1.316406 16.65625 -0.671875 C 15.1875 -0.0234375 13.375 0.296875 11.21875 0.296875 Z M 11.21875 0.296875" style="stroke:none"/></g></g><g style="fill:#2d3318;fill-opacity:1;"><g transform="translate(344.895467, 191.071285)"><path d="M 8.859375 -22.265625 L 0.140625 -22.265625 L 0.140625 -25.421875 L 21.171875 -25.421875 L 21.171875 -22.265625 L 12.453125 -22.265625 L 12.453125 0 L 8.859375 0 Z M 8.859375 -22.265625" style="stroke:none"/></g></g></g></svg>